<svg id="Шар_1" data-name="Шар 1" xmlns="http://www.w3.org/2000/svg" viewBox="0 0 29.72 30.38"><defs><style>.cls-1{fill:#1e1e1e;}.cls-2{fill:#fff;}</style></defs><path class="cls-1" d="M33.88,35.63H16.12c-1.85,0-3.4-1-3.57-2.31L10.14,15.15c-.05-.42.41-.78,1-.78H38.86c.59,0,1,.36,1,.78L37.45,33.32C37.28,34.63,35.73,35.63,33.88,35.63Z" transform="translate(-10.14 -5.25)"/><rect class="cls-2" x="24.45" y="17.35" width="1.1" height="15.3" rx="0.29" transform="translate(39.85 44.75) rotate(-180)"/><path class="cls-1" d="M34.19,14.37a9.12,9.12,0,1,0-18.24,0h.84v0A8.21,8.21,0,0,1,25,6.12h0a8.2,8.2,0,0,1,8.2,8.2v0Z" transform="translate(-10.14 -5.25)"/><rect class="cls-2" x="28.45" y="17.35" width="1.1" height="15.3" rx="0.29" transform="translate(47.85 44.75) rotate(-180)"/><rect class="cls-2" x="33.45" y="17.35" width="1.1" height="15.3" rx="0.29" transform="translate(57.85 44.75) rotate(-180)"/><rect class="cls-2" x="15.45" y="17.31" width="1.1" height="15.3" rx="0.29" transform="translate(21.86 44.68) rotate(-180)"/><rect class="cls-2" x="20.45" y="17.31" width="1.1" height="15.3" rx="0.29" transform="translate(31.85 44.68) rotate(-180)"/></svg>